<mxfile host="app.diagrams.net" modified="2023-05-26T03:49:36.461Z" agent="Mozilla/5.0 (Windows NT 10.0; Win64; x64) AppleWebKit/537.36 (KHTML, like Gecko) Chrome/113.0.0.0 Safari/537.36" version="21.3.4" etag="Aru_IqhuvaI7Wvgfqhuz" type="github">
  <diagram name="第 1 页" id="IgaMSCyKU6Nu3RsEfbyu">
    <mxGraphModel>
      <root>
        <mxCell id="0" />
        <mxCell id="1" parent="0" />
      </root>
    </mxGraphModel>
  </diagram>
</mxfile>
